<svg width="588" height="228" viewBox="0 0 588 228" fill="none" xmlns="http://www.w3.org/2000/svg">
<path d="M0.52431 53.283C0.334636 47.4523 31.141 50.3889 33.1531 46.2912C34.3028 43.9497 20.0435 32.89 23.2479 29.3941C27.4922 24.7636 42.004 35.2994 44.2236 32.89C45.8295 31.1469 45.6661 0.771744 49.8005 0.843909C53.9348 0.916074 56.0806 31.0919 57.6246 32.89C59.7589 35.3754 73.1891 25.3456 77.4349 28.8114C81.6807 32.2773 67.3364 43.911 68.4037 46.2912C70.2715 50.4566 537.741 48.9131 537.741 53.283C537.741 59.4009 70.4158 56.4686 68.4037 60.5662C67.254 62.9077 81.0396 75.5735 77.435 77.7546C72.061 81.0064 60.427 71.8493 58.2073 74.2587C56.6014 76.0018 56.168 174.668 49.8005 174.668C45.6655 174.668 45.1851 76.0568 43.641 74.2587C41.5067 71.7733 30.253 81.7746 24.9958 78.3373C21.4696 76.0317 36.551 62.9464 35.4837 60.5662C33.6159 56.4009 0.713985 59.1138 0.52431 53.283Z" fill="#FDBA35"/>
<path d="M587.017 174.668C587.207 180.499 556.4 177.562 554.388 181.66C553.239 184.001 567.498 195.061 564.293 198.557C560.049 203.188 545.537 192.652 543.318 195.061C541.712 196.804 541.875 227.179 537.741 227.107C533.607 227.035 531.461 196.859 529.917 195.061C527.782 192.576 514.352 202.606 510.106 199.14C505.861 195.674 520.205 184.04 519.138 181.66C517.27 177.495 49.8005 179.038 49.8005 174.668C49.8005 168.55 517.126 171.483 519.138 167.385C520.287 165.043 506.502 152.378 510.106 150.197C515.48 146.945 527.114 156.102 529.334 153.693C530.94 151.949 531.373 53.283 537.741 53.283C541.876 53.283 542.356 151.894 543.9 153.693C546.035 156.178 557.288 146.177 562.546 149.614C566.072 151.919 550.99 165.005 552.058 167.385C553.925 171.55 586.827 168.837 587.017 174.668Z" fill="#FDBA35"/>
</svg>
