<svg width="33" height="32" viewBox="0 0 33 32" fill="none" xmlns="http://www.w3.org/2000/svg">
<path d="M22.4448 11.4172C23.1553 12.3283 23.1754 13.0323 22.5192 14.646C21.8151 13.0594 21.6958 12.3027 22.4448 11.4172Z" fill="#252012"/>
<path fill-rule="evenodd" clip-rule="evenodd" d="M31.1403 27.3742C28.6107 32.3006 19.2557 31.3833 14.2706 30.6827C10.417 30.1411 1.98955 29.3008 1.18979 22.1207C0.718505 17.8895 5.07293 11.3565 5.62856 10.1588C6.54922 8.17426 4.78074 1.00786 6.58385 0.605857C8.79181 0.113592 10.3735 3.59953 11.8165 5.75858C11.9963 5.97928 12.3709 6.04478 12.8164 6.02497C16.2704 5.48129 18.1426 5.60278 21.3975 6.37969C24.9758 6.88258 29.0021 -1.12861 31.6562 1.06897C33.6955 2.75758 29.6731 8.66786 31.0614 13.7332C31.9067 16.8172 32.7759 24.1889 31.1403 27.3742ZM10.4433 16.8613C9.82424 17.4262 10.9265 14.3104 12.119 14.0362C13.0537 13.8213 15.4719 13.9238 16.3089 14.6251C16.867 15.0927 16.7732 17.4656 16.1499 16.9376C13.8278 14.9705 12.9881 20.2795 14.3351 22.4566C14.76 23.1613 15.5389 23.9608 16.1036 24.5406C16.5794 25.029 16.9033 25.3614 16.7353 25.3497C15.8826 25.0178 15.4602 24.716 14.4587 24.0005L14.4326 23.9818C14.0981 23.7428 13.8451 23.542 13.5868 23.3369L13.5867 23.3369L13.5866 23.3368C13.3297 23.1329 13.0675 22.9247 12.7144 22.6706C12.3959 22.4413 12.006 22.7877 11.6448 23.1086C11.5516 23.1915 11.4603 23.2726 11.3726 23.3417C10.2521 24.5489 8.7494 25.3632 8.82332 24.8372C8.85156 24.6363 9.21079 24.2708 9.63999 23.8341C10.1363 23.3291 10.7261 22.7289 11.0059 22.178C11.7389 20.735 12.8403 14.674 10.4433 16.8613ZM22.2868 15.7598C23.7543 15.7029 25.5591 15.1592 25.7726 13.6403C25.986 12.1213 24.4002 10.5583 23.0446 10.3678C21.1272 10.0983 19.474 11.4114 19.2605 12.9303C19.0471 14.4492 20.8193 15.8168 22.2868 15.7598ZM7.73176 14.516C9.1453 14.7146 11.2374 14.0959 11.4181 12.8096C11.5989 11.5233 10.9886 10.243 9.57504 10.0444C8.1615 9.84569 6.62789 11.2759 6.37633 12.101C6.05837 13.144 6.31822 14.3173 7.73176 14.516Z" fill="#252012"/>
<path fill-rule="evenodd" clip-rule="evenodd" d="M25.7726 13.6403C25.5591 15.1592 23.7543 15.7029 22.2868 15.7598C20.8193 15.8168 19.0471 14.4492 19.2605 12.9303C19.474 11.4114 21.1272 10.0983 23.0446 10.3678C24.4002 10.5583 25.986 12.1213 25.7726 13.6403ZM22.4448 11.4172C23.1553 12.3283 23.1754 13.0323 22.5192 14.646C21.8151 13.0594 21.6958 12.3027 22.4448 11.4172Z" fill="#D9F775"/>
<path d="M12.8444 17.8017C12.8631 19.3032 12.7492 22.1184 11.3726 23.3417C11.4603 23.2726 11.5516 23.1915 11.6448 23.1086C12.006 22.7877 12.3959 22.4413 12.7144 22.6706C13.0675 22.9247 13.3297 23.1329 13.5866 23.3368L13.5867 23.3369L13.5868 23.3369C13.8451 23.542 14.0981 23.7428 14.4326 23.9818C12.6743 22.5512 12.8483 21.1645 13.0149 19.8366C13.0552 19.5159 13.095 19.1986 13.1071 18.8849C13.1502 17.7633 13.1864 16.8202 12.9552 16.741C12.8306 16.6984 12.836 17.1311 12.8444 17.8017Z" fill="#252012"/>
<path d="M12.119 14.0362C10.9265 14.3104 9.82424 17.4262 10.4433 16.8613C12.8403 14.674 11.7389 20.735 11.0059 22.178C10.7261 22.7289 10.1363 23.3291 9.63999 23.8341C9.21079 24.2708 8.85156 24.6363 8.82332 24.8372C8.7494 25.3632 10.2521 24.5489 11.3726 23.3417C12.7492 22.1184 12.8631 19.3032 12.8444 17.8017C12.836 17.1311 12.8306 16.6984 12.9552 16.741C13.1864 16.8202 13.1502 17.7633 13.1071 18.8849C13.095 19.1986 13.0552 19.5159 13.0149 19.8366C12.8483 21.1645 12.6743 22.5512 14.4326 23.9818L14.4587 24.0005C15.4602 24.716 15.8826 25.0178 16.7353 25.3497C16.9033 25.3614 16.5794 25.029 16.1036 24.5406C15.5389 23.9608 14.76 23.1613 14.3351 22.4566C12.9881 20.2795 13.8278 14.9705 16.1499 16.9376C16.7732 17.4656 16.867 15.0927 16.3089 14.6251C15.4719 13.9238 13.0537 13.8213 12.119 14.0362Z" fill="#37312C"/>
<path fill-rule="evenodd" clip-rule="evenodd" d="M22.4448 11.4172C23.1553 12.3283 23.1754 13.0323 22.5192 14.646C21.8151 13.0594 21.6958 12.3027 22.4448 11.4172Z" fill="#37312C"/>
<path fill-rule="evenodd" clip-rule="evenodd" d="M7.73176 14.516C9.1453 14.7146 11.2374 14.0959 11.4181 12.8096C11.5989 11.5233 10.9886 10.243 9.57504 10.0444C8.1615 9.84569 6.62789 11.2759 6.37633 12.101C6.05837 13.144 6.31822 14.3173 7.73176 14.516ZM8.43977 13.8597C9.1549 12.4915 9.26508 11.6606 9.01093 10.8478C8.11107 12.1119 8.18534 12.9548 8.43977 13.8597Z" fill="#D9F775"/>
<path d="M8.43977 13.8597C9.1549 12.4915 9.26508 11.6606 9.01093 10.8478C8.11107 12.1119 8.18534 12.9548 8.43977 13.8597Z" fill="#37312C"/>
<path d="M1.18979 22.1207L0.692862 22.176L1.18979 22.1207ZM31.1403 27.3742L31.5851 27.6026L31.5851 27.6026L31.1403 27.3742ZM6.58385 0.605857L6.69265 1.09388L6.58385 0.605857ZM11.8165 5.75858L11.4008 6.03643L11.4139 6.05603L11.4288 6.07431L11.8165 5.75858ZM5.62856 10.1588L5.17499 9.94839L5.62856 10.1588ZM12.8164 6.02497L12.8386 6.52448L12.8665 6.52324L12.8941 6.51889L12.8164 6.02497ZM21.3975 6.37969L21.2814 6.86602L21.3045 6.87152L21.3279 6.87482L21.3975 6.37969ZM31.6562 1.06897L31.975 0.683855L31.975 0.683855L31.6562 1.06897ZM31.0614 13.7332L30.5792 13.8653L31.0614 13.7332ZM10.4433 16.8613L10.1062 16.4919L10.4433 16.8613ZM12.119 14.0362L12.0069 13.5489L12.0069 13.5489L12.119 14.0362ZM16.3089 14.6251L16.63 14.2418L16.3089 14.6251ZM16.1499 16.9376L16.4731 16.5561L16.1499 16.9376ZM16.7353 25.3497L16.554 25.8156L16.6247 25.8431L16.7004 25.8484L16.7353 25.3497ZM12.7144 22.6706L13.0065 22.2648L13.0065 22.2648L12.7144 22.6706ZM11.0059 22.178L11.4517 22.4045L11.4517 22.4045L11.0059 22.178ZM12.9552 16.741L13.1172 16.268L13.1172 16.268L12.9552 16.741ZM11.3726 23.3417L11.0405 22.9679L11.0225 22.9839L11.0061 23.0015L11.3726 23.3417ZM14.4326 23.9818L14.1419 24.3886L14.1419 24.3886L14.4326 23.9818ZM12.8444 17.8017L12.3444 17.808L12.3444 17.808L12.8444 17.8017ZM13.1071 18.8849L12.6074 18.8657L12.6074 18.8657L13.1071 18.8849ZM14.3351 22.4566L14.7633 22.1984L14.7603 22.1935L14.3351 22.4566ZM22.2868 15.7598L22.3062 16.2595L22.2868 15.7598ZM22.4448 11.4172L22.8391 11.1097C22.7464 10.991 22.6053 10.9203 22.4547 10.9173C22.3041 10.9143 22.1603 10.9793 22.063 11.0943L22.4448 11.4172ZM22.5192 14.646L22.0622 14.8488C22.1436 15.0321 22.3266 15.1491 22.5271 15.1459C22.7276 15.1428 22.9069 15.0201 22.9824 14.8343L22.5192 14.646ZM6.37633 12.101L6.85459 12.2469L6.85459 12.2469L6.37633 12.101ZM9.01093 10.8478L9.48814 10.6986C9.43146 10.5173 9.27702 10.3839 9.08949 10.354C8.90196 10.3242 8.71372 10.4031 8.60359 10.5578L9.01093 10.8478ZM8.43977 13.8597L7.95844 13.995C8.01391 14.1923 8.18415 14.3357 8.38798 14.357C8.5918 14.3782 8.78795 14.2729 8.88289 14.0913L8.43977 13.8597ZM14.4587 24.0005L14.7494 23.5936L14.7494 23.5936L14.4587 24.0005ZM9.63999 23.8341L9.9966 24.1845L9.9966 24.1845L9.63999 23.8341ZM11.6448 23.1086L11.3127 22.7348L11.3127 22.7348L11.6448 23.1086ZM13.5866 23.3368L13.2757 23.7285L13.284 23.7348L13.5866 23.3368ZM13.5867 23.3369L13.9036 22.9501L13.8966 22.9444L13.8893 22.9389L13.5867 23.3369ZM13.5868 23.3369L13.2698 23.7237L13.2759 23.7285L13.5868 23.3369ZM16.1036 24.5406L15.7455 24.8895L15.7455 24.8895L16.1036 24.5406ZM13.0149 19.8366L13.511 19.8989L13.511 19.8989L13.0149 19.8366ZM30.6955 27.1458C29.5579 29.3613 26.8335 30.344 23.5808 30.6406C20.364 30.9339 16.8276 30.5371 14.3402 30.1875L14.201 31.1778C16.6986 31.5288 20.3323 31.941 23.6716 31.6365C26.9751 31.3353 30.1931 30.3134 31.5851 27.6026L30.6955 27.1458ZM14.3402 30.1875C12.3899 29.9134 9.39731 29.5748 6.78528 28.433C4.19578 27.301 2.06007 25.4172 1.68672 22.0653L0.692862 22.176C1.11927 26.0042 3.59716 28.1307 6.38473 29.3492C9.14976 30.558 12.2977 30.9103 14.201 31.1778L14.3402 30.1875ZM6.69265 1.09388C7.47954 0.918438 8.24772 1.42421 9.09446 2.49764C9.50176 3.01398 9.89138 3.61641 10.2756 4.23668C10.6539 4.84747 11.0337 5.48712 11.4008 6.03643L12.2322 5.48074C11.8778 4.95052 11.5188 4.34478 11.1257 3.71011C10.7384 3.08491 10.3241 2.4418 9.87959 1.87831C9.02274 0.792073 7.89611 -0.198989 6.47504 0.117839L6.69265 1.09388ZM12.7942 5.52547C12.5971 5.53423 12.4434 5.52232 12.3342 5.49594C12.2229 5.46908 12.2003 5.438 12.2042 5.44285L11.4288 6.07431C11.6125 6.29987 11.867 6.41188 12.0994 6.468C12.3338 6.52459 12.5902 6.53552 12.8386 6.52448L12.7942 5.52547ZM6.47504 0.117839C6.06415 0.209448 5.79192 0.49312 5.62086 0.816641C5.45489 1.13054 5.3622 1.5182 5.30783 1.92236C5.19877 2.73309 5.22522 3.77167 5.27588 4.81317C5.32754 5.87539 5.40464 6.94574 5.41268 7.88972C5.41668 8.35856 5.40323 8.78072 5.36308 9.13942C5.32228 9.50397 5.25706 9.77147 5.17499 9.94839L6.08212 10.3692C6.23022 10.05 6.31113 9.65943 6.35688 9.25065C6.40328 8.83601 6.41681 8.36956 6.41265 7.8812C6.40438 6.91076 6.32468 5.79228 6.2747 4.76459C6.2237 3.71617 6.20366 2.76374 6.2989 2.05568C6.34669 1.70045 6.41885 1.44679 6.50489 1.28407C6.58583 1.13098 6.65277 1.10277 6.69265 1.09388L6.47504 0.117839ZM1.68672 22.0653C1.57902 21.0984 1.74535 19.9677 2.08712 18.7725C2.4275 17.5822 2.93282 16.3586 3.47564 15.2169C4.01786 14.0764 4.59296 13.027 5.06954 12.1842C5.53402 11.3629 5.93196 10.6929 6.08212 10.3692L5.17499 9.94839C5.04734 10.2235 4.69262 10.8193 4.19909 11.692C3.71768 12.5433 3.12945 13.6161 2.57252 14.7875C2.01619 15.9576 1.48655 17.2355 1.12566 18.4976C0.766163 19.7547 0.564917 21.0273 0.692862 22.176L1.68672 22.0653ZM21.3279 6.87482C22.4166 7.02782 23.4738 6.52794 24.4237 5.86252C25.3816 5.19143 26.3341 4.27546 27.2144 3.45449C28.1177 2.61215 28.9343 1.88065 29.6738 1.48266C30.0379 1.28666 30.3473 1.19224 30.6106 1.18674C30.8589 1.18155 31.0958 1.25415 31.3373 1.45409L31.975 0.683855C31.553 0.334395 31.0835 0.176631 30.5897 0.186956C30.1108 0.196968 29.6422 0.363959 29.1998 0.602112C28.326 1.07243 27.4148 1.90026 26.5324 2.72316C25.6271 3.56742 24.7362 4.42261 23.8499 5.0435C22.9555 5.67007 22.1676 5.983 21.4671 5.88455L21.3279 6.87482ZM30.5792 13.8653C30.9906 15.3662 31.4146 17.9428 31.5317 20.5382C31.5902 21.8339 31.5715 23.1226 31.4401 24.276C31.3079 25.436 31.065 26.4262 30.6955 27.1458L31.5851 27.6026C32.0334 26.7295 32.2952 25.6037 32.4337 24.3893C32.5728 23.1683 32.5907 21.824 32.5307 20.4932C32.4108 17.8355 31.9775 15.1841 31.5436 13.601L30.5792 13.8653ZM31.5436 13.601C30.8896 11.2148 31.5054 8.59986 32.0882 6.25542C32.3725 5.11147 32.6542 4.00883 32.7268 3.08711C32.7987 2.17492 32.681 1.26843 31.975 0.683855L31.3373 1.45409C31.651 1.71382 31.7953 2.17934 31.7299 3.00854C31.6653 3.82821 31.4105 4.83633 31.1177 6.01419C30.5462 8.31337 29.8449 11.1862 30.5792 13.8653L31.5436 13.601ZM10.1062 16.4919C10.0845 16.5118 10.1171 16.474 10.1956 16.4491C10.2412 16.4347 10.3216 16.4185 10.42 16.44C10.526 16.4632 10.6119 16.5212 10.6705 16.5905C10.7234 16.6531 10.7451 16.7136 10.754 16.7448C10.7632 16.7776 10.7648 16.8007 10.7652 16.8075C10.7658 16.8198 10.7641 16.8121 10.7699 16.7762C10.7942 16.6253 10.8896 16.3283 11.0547 15.9752C11.2166 15.6291 11.4266 15.2693 11.6552 14.9879C11.8968 14.6903 12.1 14.5536 12.231 14.5235L12.0069 13.5489C11.5417 13.6559 11.1599 14.0115 10.8789 14.3575C10.5847 14.7198 10.3343 15.1551 10.1489 15.5516C9.96677 15.9411 9.82816 16.3343 9.78261 16.6173C9.77094 16.6898 9.76204 16.7746 9.76655 16.8601C9.76995 16.9246 9.78414 17.091 9.90679 17.2361C9.97877 17.3213 10.081 17.3895 10.2064 17.4169C10.3243 17.4427 10.4271 17.4248 10.4983 17.4022C10.6281 17.361 10.7247 17.2814 10.7803 17.2306L10.1062 16.4919ZM12.231 14.5235C12.624 14.4331 13.4015 14.401 14.1986 14.4844C14.591 14.5254 14.9699 14.5928 15.2924 14.687C15.6232 14.7836 15.8553 14.8973 15.9878 15.0083L16.63 14.2418C16.3441 14.0022 15.96 13.8402 15.5728 13.7271C15.1772 13.6115 14.7362 13.5352 14.3026 13.4898C13.4476 13.4004 12.5486 13.4244 12.0069 13.5489L12.231 14.5235ZM15.9878 15.0083C15.9797 15.0016 16.0007 15.0172 16.0331 15.0882C16.0636 15.1548 16.0935 15.2471 16.1183 15.3626C16.1679 15.5943 16.1869 15.8736 16.1732 16.1277C16.1585 16.4004 16.1102 16.5669 16.0807 16.6191C16.0654 16.6462 16.1043 16.5572 16.2374 16.5239C16.3923 16.4852 16.4844 16.5657 16.4731 16.5561L15.8267 17.3191C15.9712 17.4415 16.2026 17.5633 16.4797 17.4941C16.7351 17.4303 16.8792 17.2389 16.9517 17.1104C17.0977 16.8516 17.1548 16.4946 17.1717 16.1816C17.1896 15.8501 17.1664 15.4815 17.0961 15.1532C17.0323 14.8553 16.9061 14.4731 16.63 14.2418L15.9878 15.0083ZM11.4517 22.4045C11.6634 21.9878 11.8804 21.29 12.0517 20.5426C12.2251 19.7857 12.3623 18.9307 12.3978 18.1819C12.4155 17.8082 12.4086 17.4466 12.3628 17.1302C12.3189 16.8272 12.231 16.5024 12.0387 16.2575C11.9367 16.1275 11.7995 16.0132 11.6222 15.9473C11.4444 15.8813 11.2602 15.8767 11.0848 15.9129C10.7541 15.981 10.4275 16.1988 10.1062 16.4919L10.7803 17.2306C11.0582 16.977 11.2217 16.9057 11.2867 16.8923C11.3091 16.8876 11.2992 16.8941 11.274 16.8848C11.2494 16.8756 11.2431 16.8635 11.2523 16.8751C11.2824 16.9135 11.3377 17.0291 11.3731 17.2735C11.4065 17.5045 11.4149 17.7973 11.3989 18.1346C11.367 18.8081 11.2413 19.6022 11.077 20.3192C10.9105 21.0458 10.715 21.6468 10.5602 21.9516L11.4517 22.4045ZM11.7047 23.7154C12.5197 22.9912 12.9189 21.8446 13.123 20.7693C13.3304 19.6763 13.3539 18.5584 13.3443 17.7955L12.3444 17.808C12.3536 18.5465 12.3295 19.5869 12.1405 20.5828C11.9482 21.5962 11.6021 22.4689 11.0405 22.9679L11.7047 23.7154ZM13.3443 17.7955C13.34 17.4501 13.3373 17.1998 13.3487 17.0391C13.355 16.9492 13.363 16.9416 13.3523 16.9699C13.3482 16.9809 13.3167 17.0681 13.2194 17.143C13.1643 17.1855 13.0916 17.2208 13.0052 17.2333C12.9205 17.2457 12.8471 17.2325 12.7932 17.2141L13.1172 16.268C12.9566 16.213 12.765 16.2307 12.6092 16.3507C12.4884 16.4438 12.4369 16.563 12.416 16.619C12.3716 16.7374 12.358 16.8718 12.3512 16.9687C12.3362 17.1813 12.3404 17.4827 12.3444 17.808L13.3443 17.7955ZM12.7932 17.2141C12.6698 17.1718 12.6136 17.0882 12.5997 17.0646C12.5856 17.0409 12.5884 17.0357 12.5967 17.0698C12.613 17.1369 12.6275 17.2568 12.6344 17.4408C12.6479 17.8033 12.6293 18.2974 12.6074 18.8657L13.6067 18.9041C13.628 18.3508 13.649 17.8126 13.6337 17.4033C13.6261 17.2014 13.609 17.0006 13.5684 16.8336C13.5482 16.7506 13.5163 16.65 13.4601 16.5551C13.404 16.4604 13.2984 16.3301 13.1172 16.268L12.7932 17.2141ZM14.7603 22.1935C14.4779 21.7371 14.2917 21.0798 14.2215 20.3513C14.1519 19.6279 14.2011 18.8785 14.3522 18.2621C14.5098 17.6193 14.7508 17.2286 14.9738 17.0805C15.0671 17.0185 15.1591 16.9965 15.2709 17.0144C15.3954 17.0343 15.5807 17.1107 15.8267 17.3191L16.4731 16.5561C16.1386 16.2727 15.7896 16.0847 15.429 16.027C15.0557 15.9672 14.7116 16.0542 14.4207 16.2474C13.8753 16.6095 13.5552 17.3132 13.381 18.024C13.2003 18.761 13.1469 19.6242 13.2261 20.4471C13.3048 21.2648 13.5188 22.0876 13.9099 22.7197L14.7603 22.1935ZM25.2774 13.5707C25.2008 14.1161 24.8438 14.5154 24.2751 14.8017C23.6986 15.0919 22.9575 15.2334 22.2674 15.2602L22.3062 16.2595C23.0835 16.2293 23.9786 16.0705 24.7248 15.6949C25.4788 15.3153 26.1309 14.6834 26.2677 13.7099L25.2774 13.5707ZM22.2674 15.2602C21.6832 15.2829 20.994 15.0158 20.4725 14.5597C19.9506 14.1032 19.6802 13.5365 19.7557 12.9999L18.7654 12.8607C18.6273 13.843 19.1364 14.7196 19.8141 15.3124C20.4922 15.9055 21.4228 16.2937 22.3062 16.2595L22.2674 15.2602ZM19.7557 12.9999C19.9273 11.7788 21.306 10.6284 22.975 10.8629L23.1142 9.87265C20.9485 9.56827 19.0207 11.0439 18.7654 12.8607L19.7557 12.9999ZM22.975 10.8629C23.5094 10.938 24.1438 11.3006 24.6239 11.8387C25.1038 12.3767 25.3568 13.0058 25.2774 13.5707L26.2677 13.7099C26.4018 12.7558 25.9686 11.8439 25.3701 11.173C24.7717 10.5023 23.9354 9.98806 23.1142 9.87265L22.975 10.8629ZM22.0505 11.7247C22.3641 12.1268 22.4862 12.4295 22.4947 12.7801C22.5039 13.1629 22.3798 13.6615 22.0561 14.4576L22.9824 14.8343C23.3149 14.0168 23.5088 13.3566 23.4944 12.7561C23.4792 12.1235 23.236 11.6187 22.8391 11.1097L22.0505 11.7247ZM22.063 11.0943C21.6233 11.6142 21.4062 12.1449 21.4377 12.793C21.4669 13.3939 21.7105 14.0562 22.0622 14.8488L22.9763 14.4432C22.6239 13.6492 22.4557 13.1398 22.4365 12.7444C22.4196 12.396 22.5173 12.1057 22.8265 11.7401L22.063 11.0943ZM10.923 12.74C10.8705 13.1138 10.5168 13.4877 9.8506 13.7558C9.20691 14.0148 8.41873 14.1076 7.80135 14.0208L7.66217 15.0111C8.45834 15.123 9.42296 15.0058 10.2239 14.6835C11.0023 14.3703 11.785 13.7918 11.9133 12.8792L10.923 12.74ZM7.80135 14.0208C7.24265 13.9423 6.98346 13.6927 6.86066 13.4199C6.72383 13.1159 6.71824 12.6941 6.85459 12.2469L5.89806 11.9552C5.71645 12.5509 5.68181 13.2373 5.9488 13.8303C6.22982 14.4546 6.80732 14.8909 7.66217 15.0111L7.80135 14.0208ZM6.85459 12.2469C6.93656 11.978 7.28938 11.4945 7.83654 11.0913C8.37593 10.6939 8.98138 10.4658 9.50546 10.5395L9.64463 9.54922C8.75516 9.42421 7.88704 9.81195 7.24335 10.2862C6.60743 10.7548 6.06766 11.3989 5.89806 11.9552L6.85459 12.2469ZM9.50546 10.5395C10.0611 10.6176 10.4368 10.8989 10.6669 11.2784C10.9042 11.6696 11.0001 12.1911 10.923 12.74L11.9133 12.8792C12.0169 12.1418 11.8981 11.38 11.522 10.7599C11.1388 10.1279 10.5026 9.66979 9.64463 9.54922L9.50546 10.5395ZM8.88289 14.0913C9.62762 12.6665 9.79844 11.6909 9.48814 10.6986L8.53371 10.997C8.73172 11.6302 8.68217 12.3166 7.99665 13.628L8.88289 14.0913ZM12.8941 6.51889C16.2794 5.98602 18.0857 6.10324 21.2814 6.86602L21.5136 5.89335C18.1995 5.10232 16.2614 4.97655 12.7386 5.53105L12.8941 6.51889ZM8.32819 24.7676C8.30444 24.9366 8.33039 25.2065 8.57613 25.3811C8.77302 25.521 8.99335 25.506 9.1039 25.4901C9.34947 25.4549 9.63341 25.3244 9.89767 25.1738C10.4509 24.8584 11.1463 24.3205 11.7391 23.6818L11.0061 23.0015C10.4784 23.5701 9.86216 24.043 9.40243 24.305C9.1602 24.4431 9.01229 24.493 8.96188 24.5003C8.92444 24.5056 9.03074 24.4774 9.15523 24.5659C9.32857 24.689 9.32373 24.8693 9.31846 24.9068L8.32819 24.7676ZM16.9167 24.8837C16.1289 24.5771 15.7523 24.3102 14.7494 23.5936L14.168 24.4073C15.1681 25.1218 15.6362 25.4585 16.554 25.8156L16.9167 24.8837ZM14.7494 23.5936L14.7233 23.575L14.1419 24.3886L14.168 24.4073L14.7494 23.5936ZM14.7494 23.5936C14.7407 23.5875 14.732 23.5812 14.7233 23.575L14.1419 24.3886C14.1507 24.3949 14.1594 24.4011 14.168 24.4073L14.7494 23.5936ZM10.5602 21.9516C10.3231 22.4183 9.79927 22.9587 9.28338 23.4836L9.9966 24.1845C10.4733 23.6995 11.1291 23.0396 11.4517 22.4045L10.5602 21.9516ZM9.28338 23.4836C9.07286 23.6978 8.86234 23.9117 8.70205 24.0982C8.62157 24.1919 8.54367 24.2902 8.48128 24.3877C8.42508 24.4756 8.35042 24.6095 8.32819 24.7676L9.31846 24.9068C9.31035 24.9645 9.29118 24.9774 9.32369 24.9265C9.35001 24.8854 9.39404 24.8273 9.46054 24.7499C9.59422 24.5943 9.77792 24.4071 9.9966 24.1845L9.28338 23.4836ZM11.6821 23.7344C11.7835 23.6544 11.8863 23.5629 11.9769 23.4824L11.3127 22.7348C11.2169 22.82 11.137 22.8907 11.0631 22.949L11.6821 23.7344ZM11.9769 23.4824C12.1709 23.3101 12.3122 23.1883 12.4324 23.1237C12.4871 23.0943 12.5048 23.0956 12.4939 23.0963C12.4702 23.0977 12.4396 23.0888 12.4223 23.0764L13.0065 22.2648C12.6202 21.9867 12.2143 22.1056 11.9589 22.2429C11.7142 22.3744 11.48 22.5862 11.3127 22.7348L11.9769 23.4824ZM12.4223 23.0764C12.765 23.323 13.0192 23.5248 13.2758 23.7284L13.8975 22.9452C13.6402 22.741 13.37 22.5264 13.0065 22.2648L12.4223 23.0764ZM13.284 23.7348L13.2841 23.7349L13.8893 22.9389L13.8893 22.9388L13.284 23.7348ZM13.2698 23.7236L13.2699 23.7237L13.9037 22.9502L13.9036 22.9501L13.2698 23.7236ZM13.2759 23.7285C13.5343 23.9337 13.7961 24.1415 14.1419 24.3886L14.7233 23.575C14.4 23.344 14.1558 23.1502 13.8976 22.9453L13.2759 23.7285ZM16.7004 25.8484C16.7498 25.8519 17.0149 25.8671 17.1846 25.6264C17.3474 25.3955 17.2566 25.1581 17.2415 25.1186C17.1932 24.992 17.0984 24.8763 17.0443 24.8118C16.9096 24.6509 16.693 24.429 16.4618 24.1917L15.7455 24.8895C15.9901 25.1406 16.1732 25.3291 16.2775 25.4537C16.3429 25.5318 16.3272 25.5275 16.3073 25.4752C16.3064 25.4728 16.2171 25.2633 16.3673 25.0502C16.5244 24.8274 16.7629 24.8504 16.7703 24.8509L16.7004 25.8484ZM16.4618 24.1917C15.8839 23.5985 15.152 22.8432 14.7633 22.1984L13.9069 22.7148C14.3679 23.4794 15.1938 24.3232 15.7455 24.8895L16.4618 24.1917ZM8.9211 13.7243C8.80101 13.2972 8.73891 12.9363 8.78839 12.5524C8.83753 12.1712 9.00335 11.7206 9.41826 11.1378L8.60359 10.5578C8.11865 11.2391 7.87168 11.842 7.7966 12.4245C7.72186 13.0043 7.8241 13.5172 7.95844 13.995L8.9211 13.7243ZM12.6074 18.8657C12.5963 19.1541 12.5596 19.4497 12.5188 19.7744L13.511 19.8989C13.5508 19.5821 13.5937 19.2431 13.6067 18.9041L12.6074 18.8657ZM12.5188 19.7744C12.4371 20.4255 12.3365 21.1903 12.5141 21.9804C12.6973 22.7954 13.1628 23.5933 14.1171 24.3697L14.7482 23.594C13.9441 22.9398 13.6174 22.329 13.4897 21.761C13.3564 21.1682 13.4261 20.5757 13.511 19.8989L12.5188 19.7744Z" fill="#252012"/>
</svg>
