<svg width="20" height="28" viewBox="0 0 20 28" fill="none" xmlns="http://www.w3.org/2000/svg">
    <path d="M6.7692 27C2.11876 24.767 1.68654 20.4603 0.269201 15.5C-0.73091 12 1.26928 11 2.7692 12.5L2.77177 12.5026C4.26913 14.0001 4.26985 14.0008 5.2692 15.5C5.73917 16.2051 4.46303 3.11252 5.2692 1.50004C6.26914 -0.500023 7.76925 -0.500003 8.76929 1.50004C9.26938 2.5002 8.63668 7.81633 9.2692 7.50004C11.2691 6.49997 11.6692 7.50004 12.6693 8.50004C14.1692 7.50004 15.2691 7.50004 16.7692 9.50004C19.2691 8.99997 19.7692 10.5 19.7692 12.5V20.5C19.7692 23.2958 19.2693 25 16.7692 27C14.8943 28.5 8.85168 28 6.7692 27Z" fill="#1E1E24"/>
</svg>
